HIERARCHY
ROOT Hips
{
  OFFSET 196.326 95.9168 97.7182
  CHANNELS 6 Xposition Yposition Zposition Zrotation Xrotation Yrotation
  JOINT LeftUpLeg
  {
    OFFSET 8.64259 1.95398 -2.38835
    CHANNELS 3 Zrotation Xrotation Yrotation
    JOINT LeftLeg
    {
      OFFSET 43.7702 0 0
      CHANNELS 3 Zrotation Xrotation Yrotation
      JOINT LeftFoot
      {
        OFFSET 40.6238 0 0
        CHANNELS 3 Zrotation Xrotation Yrotation
        JOINT LeftToeBase
        {
          OFFSET 12.7242 0 0
          CHANNELS 3 Zrotation Xrotation Yrotation
          End Site
          {
            OFFSET 0 0 0
          }
        }
      }
    }
  }
  JOINT RightUpLeg
  {
    OFFSET -8.2249 1.95398 -2.59336
    CHANNELS 3 Zrotation Xrotation Yrotation
    JOINT RightLeg
    {
      OFFSET 43.5653 0 0
      CHANNELS 3 Zrotation Xrotation Yrotation
      JOINT RightFoot
      {
        OFFSET 40.6238 0 0
        CHANNELS 3 Zrotation Xrotation Yrotation
        JOINT RightToeBase
        {
          OFFSET 12.7242 0 0
          CHANNELS 3 Zrotation Xrotation Yrotation
          End Site
          {
            OFFSET 0 0 0
          }
        }
      }
    }
  }
  JOINT Spine
  {
    OFFSET 0.165834 0.87714 6.61349
    CHANNELS 3 Zrotation Xrotation Yrotation
    JOINT Spine1
    {
      OFFSET 7.38963 1.71661e-005 0
      CHANNELS 3 Zrotation Xrotation Yrotation
      JOINT Spine2
      {
        OFFSET 11.9445 1.14441e-005 0
        CHANNELS 3 Zrotation Xrotation Yrotation
        JOINT Spine3
        {
          OFFSET 14.7254 4.19617e-005 0
          CHANNELS 3 Zrotation Xrotation Yrotation
          JOINT Spine4
          {
            OFFSET 10.9679 0 0
            CHANNELS 3 Zrotation Xrotation Yrotation
            JOINT RightShoulder
            {
              OFFSET 2.46616 -1.6653 3.69651
              CHANNELS 3 Zrotation Xrotation Yrotation
              JOINT RightArm
              {
                OFFSET 13.0012 0 0
                CHANNELS 3 Zrotation Xrotation Yrotation
                JOINT RightForeArm
                {
                  OFFSET 28.7848 1.52588e-005 0
                  CHANNELS 3 Zrotation Xrotation Yrotation
                  JOINT RightHand
                  {
                    OFFSET 26.5688 1.52588e-005 0
                    CHANNELS 3 Zrotation Xrotation Yrotation
                    End Site
                    {
                      OFFSET 0 0 0
                    }
                  }
                }
              }
            }
            JOINT LeftShoulder
            {
              OFFSET 2.38034 -1.29275 -3.75231
              CHANNELS 3 Zrotation Xrotation Yrotation
              JOINT LeftArm
              {
                OFFSET 16.3182 6.10351e-005 0
                CHANNELS 3 Zrotation Xrotation Yrotation
                JOINT LeftForeArm
                {
                  OFFSET 27.0901 0 0
                  CHANNELS 3 Zrotation Xrotation Yrotation
                  JOINT LeftHand
                  {
                    OFFSET 24.5451 1.52588e-005 0
                    CHANNELS 3 Zrotation Xrotation Yrotation
                    End Site
                    {
                      OFFSET 0 0 0
                    }
                  }
                }
              }
            }
            JOINT Neck
            {
              OFFSET 5.0226 -0.0266342 0
              CHANNELS 3 Zrotation Xrotation Yrotation
              JOINT Head
              {
                OFFSET 6.69363 2.86102e-005 0
                CHANNELS 3 Zrotation Xrotation Yrotation
                End Site
                {
                  OFFSET 0 0 0
                }
              }
            }
          }
        }
      }
    }
  }
}
MOTION
Frames:	7
Frame Time:	0.0416667
258.929 89.8238 -252.689 -62.5497 -48.8359 -66.3748 -167.512 40.6205 86.2275 -56.4657 26.2076 -6.80511 43.0131 -10.0148 19.099 98.2787 52.2982 -24.9762 -178.412 69.0719 91.982 -66.0466 18.7831 -0.677511 38.642 1.42262 2.05752 -105.674 39.9973 -21.3361 0.600142 5.57294 -88.6982 15.7044 1.8405 2.33249 4.0328 1.94136 2.24926 -18.4898 1.0547 2.77749 1.52284 1.05473 2.77751 168.158 -70.6842 -4.84186 7.42868 -48.0198 30.7863 -77.7809 -17.5337 -80.3255 -86.0222 2.5633 -4.67536 -77.2516 -48.3189 97.9854 -36.1321 27.8611 28.037 27.5887 -1.16682 -81.5808 35.3958 -18.3105 -54.6132 46.9919 0.380529 -23.9719 -45.1418 6.56281 21.4046 
254.803 91.0453 -247.147 -61.2338 -52.812 -65.0122 -170.823 31.9796 86.4735 -52.4186 18.1356 -3.05103 44.1422 -7.69502 10.0459 100.573 50.3801 -29.9954 177.86 61.6364 92.9492 -72.3727 18.9525 -1.43792 44.2219 2.51267 2.68755 -103.611 20.9371 -11.2341 -0.22577 5.87929 -88.9015 15.1129 0.100813 2.19417 3.44017 0.197275 2.1876 -19.0814 -0.563142 2.12311 0.931208 -0.563143 2.1231 161.409 -81.2396 -18.067 8.96142 -50.9553 38.2839 -100.832 -27.0931 -110.377 -83.6108 -29.4563 36.4623 -83.8479 -50.2085 87.9966 -33.9699 24.7785 21.5574 16.5324 -2.90454 -85.7275 35.2784 2.52465 0.354489 39.3048 0.952603 -15.2491 -33.4156 5.16311 13.516 
249.805 91.3912 -239.342 -64.2955 -53.4218 -65.4324 -172.128 19.6166 89.2683 -45.9818 13.6162 -1.0886 48.4782 -5.55401 1.97338 95.4313 47.5035 -28.69 171.435 53.3307 97.8427 -71.4464 15.9505 -0.687885 52.5934 -1.63145 -0.79393 -5.32508 -11.5429 16.3641 -0.543332 6.23697 -89.3242 14.4011 -0.743673 1.46024 2.72953 -0.678703 1.49154 -19.8027 -1.14814 1.16927 0.209976 -1.14813 1.16927 95.2203 -79.9339 -89.6464 23.4895 -47.2998 51.072 -65.5717 -32.3978 -95.254 -97.4817 -27.3753 24.9454 -89.4229 -47.9509 79.1572 -33.3375 21.4961 16.6018 14.8894 -6.91197 -94.1279 34.7243 3.66827 6.78881 29.2885 0.518908 -6.93617 -21.7953 2.70653 3.97662 
244.361 91.823 -231.07 -65.5239 -55.0348 -65.5577 -172.978 6.41194 92.2969 -33.8426 21.1291 -0.0758896 48.6462 -5.19119 1.18155 69.0652 45.5535 3.73572 170.512 52.5924 97.277 -59.3946 11.5009 2.54162 57.8237 -0.957654 -0.437585 44.8817 2.2174 15.8008 -0.911581 6.56115 -89.5583 13.7601 -1.59256 1.09407 2.0896 -1.54286 1.1631 -20.452 -1.84774 0.564759 -0.439375 -1.84772 0.564765 84.4281 -70.7659 -103.59 32.381 -31.7047 58.575 -17.1481 -9.23024 -71.2083 -68.973 -1.04289 -2.38666 -92.1742 -44.1634 73.938 -33.2603 19.0022 13.2566 17.1017 -11.0201 -105.043 30.6666 3.32724 7.12601 21.1064 0.570239 -9.30344 -13.3749 3.19406 6.27476 
237.84 92.8404 -222.665 -69.5791 -52.9676 -71.2221 -173.478 -6.16637 90.2815 -18.7457 24.9347 -0.0406394 37.9669 -11.2943 -2.29801 38.1124 16.8766 46.3386 176.086 50.7021 94.3743 -44.0803 6.98707 3.44304 55.6389 0.815914 0.853694 43.701 2.06302 16.5438 -0.849495 6.90816 -89.413 13.0654 -1.40391 1.34677 1.39444 -1.34328 1.40723 -21.1441 -1.74374 0.862543 -1.13143 -1.74373 0.862536 84.3485 -62.9288 -105.616 38.4024 -26.6919 58.6168 -12.9284 -3.81517 -72.3698 -32.2051 -1.38373 0.346883 -93.0791 -40.2401 71.2857 -33.9789 17.2519 11.6506 16.0417 -13.7583 -112.468 29.0581 2.48873 4.77849 16.4235 1.77192 -12.3607 -6.23053 5.25092 10.1811 
231.225 93.0016 -214.75 -67.4714 -52.4738 -68.9784 -174.294 -3.54055 91.8106 -26.324 30.1556 0.542095 33.5396 -14.7288 -0.729086 31.1548 0.550049 24.3268 177.012 49.388 95.6403 -34.6767 7.38651 5.21171 53.7284 1.12831 1.14233 47.1622 2.84894 17.1913 -1.01142 6.93786 -89.7001 13.0054 -1.8638 0.827709 1.33545 -1.82558 0.90894 -21.2101 -2.02637 0.2291 -1.19745 -2.02638 0.229076 83.798 -55.4857 -108.47 42.0315 -22.5865 54.5987 -14.2017 -3.48163 -72.6963 -18.814 -0.700655 -0.51738 -94.6821 -37.9563 67.8147 -34.1515 13.1575 11.21 16.6615 -13.9704 -113.936 26.6901 2.18339 4.39409 15.0188 3.53654 -10.0998 -2.11728 6.51207 8.81383 
225.437 92.2381 -207.006 -70.0242 -52.2543 -73.6342 -175.659 1.03804 89.6874 -40.921 23.8836 0.661035 37.0336 -12.1204 1.9125 29.7904 0.484151 6.99903 175.333 46.8363 95.9017 -39.2145 8.47367 5.74169 56.8921 0.231425 0.413751 42.4877 1.84664 16.0135 -1.10669 7.10589 -89.5745 12.6726 -1.99499 1.08627 1.00266 -1.94525 1.17302 -21.544 -2.22918 0.43624 -1.53134 -2.2292 0.436231 82.7471 -51.1786 -111.389 42.5799 -18.5068 48.8678 -13.1653 -3.60587 -72.2086 -21.9177 -0.740739 -0.907218 -96.2346 -37.2334 64.9272 -34.4798 9.60677 12.1496 16.9405 -11.0951 -109.249 28.1235 2.32968 4.53967 12.3237 5.31317 -6.20283 2.83189 7.24818 6.42746 
